<svg xmlns="http://www.w3.org/2000/svg" width="52" height="52" viewBox="0 0 52 52">
  <g id="Twitter" transform="translate(-973 -400)">
    <rect id="Rectangle_2_copy" data-name="Rectangle 2 copy" width="52" height="52" rx="10" transform="translate(973 400)" fill="#1da1f3"/>
    <path id="Forma_1" data-name="Forma 1" d="M1017.431,414.569a15.74,15.74,0,0,1-4.355,1.194,7.518,7.518,0,0,0,3.325-4.177,15.11,15.11,0,0,1-4.792,1.829,7.557,7.557,0,0,0-13.073,5.168,7.772,7.772,0,0,0,.176,1.724,21.39,21.39,0,0,1-15.578-7.906,7.56,7.56,0,0,0,2.322,10.1,7.454,7.454,0,0,1-3.414-.931v.083a7.592,7.592,0,0,0,6.055,7.426,7.547,7.547,0,0,1-1.982.249,6.684,6.684,0,0,1-1.431-.129,7.63,7.63,0,0,0,7.062,5.265,15.185,15.185,0,0,1-9.37,3.223,14.141,14.141,0,0,1-1.809-.1,21.279,21.279,0,0,0,11.594,3.391c13.907,0,21.51-11.52,21.51-21.505,0-.334-.012-.657-.028-.977A15.078,15.078,0,0,0,1017.431,414.569Z" fill="#f6f6f6"/>
  </g>
</svg>
